<svg data-v-423bf9ae="" xmlns="http://www.w3.org/2000/svg" viewBox="0 0 255.86100903491115 60" class="font"><!----><!----><!----><g data-v-423bf9ae="" id="6109b1e4-54fc-4f9d-bce7-a398cb70cc7a" fill="white" transform="matrix(4.531721591949463,0,0,4.531721591949463,-2.0392727851867676,-16.81268310546875)"><path d="M0.49 7.74L0.45 7.21L0.45 7.21Q1.02 7.15 1.60 6.94L1.60 6.94L1.60 6.94Q2.18 6.73 2.34 6.73L2.34 6.73L2.34 6.73Q2.53 6.73 2.60 6.89L2.60 6.89L2.60 6.89Q2.67 7.06 2.67 7.48L2.67 7.48L2.67 7.67L2.67 7.67Q4.28 6.76 5.31 6.76L5.31 6.76L5.31 6.76Q6.12 6.76 6.47 7.26L6.47 7.26L6.47 7.26Q6.82 7.76 6.82 8.40L6.82 8.40L6.82 13.08L6.82 13.08Q6.82 13.38 6.95 13.50L6.95 13.50L6.95 13.50Q7.08 13.61 7.56 13.64L7.56 13.64L7.56 14.11L4.70 14.11L4.70 13.64L4.70 13.64Q5.24 13.59 5.37 13.47L5.37 13.47L5.37 13.47Q5.50 13.34 5.50 13.02L5.50 13.02L5.50 8.58L5.50 8.58Q5.50 8.23 5.29 8.04L5.29 8.04L5.29 8.04Q5.07 7.85 4.84 7.82L4.84 7.82L4.84 7.82Q4.61 7.78 4.27 7.78L4.27 7.78L4.27 7.78Q4.00 7.78 3.50 7.95L3.50 7.95L3.50 7.95Q3.00 8.11 2.72 8.30L2.72 8.30L2.72 8.30Q2.70 9.13 2.67 10.03L2.67 10.03L2.67 10.03Q2.65 10.93 2.63 11.49L2.63 11.49L2.63 11.49Q2.62 12.04 2.62 12.38L2.62 12.38L2.62 12.38Q2.62 13.23 2.76 13.42L2.76 13.42L2.76 13.42Q2.90 13.61 3.44 13.64L3.44 13.64L3.44 14.11L0.50 14.11L0.50 13.64L0.50 13.64Q0.80 13.59 0.92 13.55L0.92 13.55L0.92 13.55Q1.04 13.51 1.16 13.44L1.16 13.44L1.16 13.44Q1.27 13.37 1.31 13.17L1.31 13.17L1.31 13.17Q1.34 12.96 1.36 12.73L1.36 12.73L1.36 12.73Q1.37 12.50 1.37 12.01L1.37 12.01L1.37 12.01Q1.37 11.83 1.33 10.04L1.33 10.04L1.33 10.04Q1.29 8.26 1.27 8.20L1.27 8.20L1.27 8.20Q1.26 8.13 1.24 8.07L1.24 8.07L1.24 8.07Q1.22 8.01 1.18 7.97L1.18 7.97L1.18 7.97Q1.15 7.92 1.13 7.90L1.13 7.90L1.13 7.90Q1.11 7.87 1.05 7.84L1.05 7.84L1.05 7.84Q0.99 7.81 0.97 7.80L0.97 7.80L0.97 7.80Q0.94 7.80 0.86 7.78L0.86 7.78L0.86 7.78Q0.78 7.77 0.76 7.76L0.76 7.76L0.76 7.76Q0.73 7.76 0.63 7.75L0.63 7.75L0.63 7.75Q0.53 7.74 0.49 7.74L0.49 7.74ZM8.30 10.67L8.30 10.67L8.30 10.67Q8.30 9.25 8.61 8.53L8.61 8.53L8.61 8.53Q8.83 8.01 9.69 7.40L9.69 7.40L9.69 7.40Q10.54 6.79 11.28 6.79L11.28 6.79L11.28 6.79Q11.93 6.79 12.42 6.94L12.42 6.94L12.42 6.94Q12.91 7.10 13.19 7.40L13.19 7.40L13.19 7.40Q13.47 7.70 13.64 7.99L13.64 7.99L13.64 7.99Q13.82 8.27 13.88 8.70L13.88 8.70L13.88 8.70Q13.94 9.13 13.96 9.38L13.96 9.38L13.96 9.38Q13.99 9.63 13.99 10.00L13.99 10.00L13.99 10.00Q13.99 10.12 13.99 10.18L13.99 10.18L13.99 10.18Q13.54 10.46 12.52 10.46L12.52 10.46L9.65 10.46L9.65 10.46Q9.65 10.91 9.66 11.15L9.66 11.15L9.66 11.15Q9.67 11.40 9.72 11.78L9.72 11.78L9.72 11.78Q9.76 12.17 9.88 12.38L9.88 12.38L9.88 12.38Q10.00 12.60 10.19 12.82L10.19 12.82L10.19 12.82Q10.39 13.05 10.71 13.15L10.71 13.15L10.71 13.15Q11.03 13.24 11.47 13.24L11.47 13.24L11.47 13.24Q12.68 13.24 13.69 12.25L13.69 12.25L14 12.57L14 12.57Q13.94 12.63 13.73 12.85L13.73 12.85L13.73 12.85Q13.52 13.06 13.45 13.13L13.45 13.13L13.45 13.13Q13.38 13.20 13.19 13.39L13.19 13.39L13.19 13.39Q12.99 13.58 12.89 13.65L12.89 13.65L12.89 13.65Q12.78 13.72 12.59 13.86L12.59 13.86L12.59 13.86Q12.40 14 12.27 14.06L12.27 14.06L12.27 14.06Q12.14 14.11 11.95 14.19L11.95 14.19L11.95 14.19Q11.76 14.27 11.57 14.29L11.57 14.29L11.57 14.29Q11.38 14.32 11.19 14.32L11.19 14.32L11.19 14.32Q10.35 14.32 9.75 13.99L9.75 13.99L9.75 13.99Q9.16 13.66 8.86 13.10L8.86 13.10L8.86 13.10Q8.55 12.54 8.43 11.95L8.43 11.95L8.43 11.95Q8.30 11.35 8.30 10.67ZM9.67 9.83L9.67 9.83L10.47 9.83L10.47 9.83Q12.33 9.83 12.68 9.58L12.68 9.58L12.68 9.58Q12.68 9.28 12.63 9.00L12.63 9.00L12.63 9.00Q12.57 8.72 12.43 8.41L12.43 8.41L12.43 8.41Q12.29 8.09 11.98 7.90L11.98 7.90L11.98 7.90Q11.68 7.70 11.23 7.70L11.23 7.70L11.23 7.70Q10.28 7.70 9.98 8.17L9.98 8.17L9.98 8.17Q9.67 8.64 9.67 9.83ZM14.45 7.56L14.42 7.10L14.42 7.10Q14.95 7.03 15.42 6.93L15.42 6.93L15.42 6.93Q15.89 6.83 16.12 6.77L16.12 6.77L16.12 6.77Q16.35 6.71 16.41 6.71L16.41 6.71L16.41 6.71Q16.66 6.71 16.66 6.92L16.66 6.92L16.66 6.92Q16.66 7.11 17.02 8.55L17.02 8.55L17.02 8.55Q17.39 9.98 17.75 11.31L17.75 11.31L18.13 12.64L18.13 12.64Q19.60 8.74 19.60 7.90L19.60 7.90L19.60 7.90Q19.60 7.73 19.49 7.49L19.49 7.49L19.49 7.49Q19.38 7.25 19.38 7.18L19.38 7.18L19.38 7.18Q19.38 6.93 20.41 6.93L20.41 6.93L20.41 6.93Q20.52 6.93 20.61 6.94L20.61 6.94L20.61 6.94Q20.69 6.94 20.75 6.96L20.75 6.96L20.75 6.96Q20.80 6.97 20.85 6.98L20.85 6.98L20.85 6.98Q20.90 6.99 20.93 7.01L20.93 7.01L20.93 7.01Q20.96 7.04 20.98 7.05L20.98 7.05L20.98 7.05Q21 7.06 21.01 7.09L21.01 7.09L21.01 7.09Q21.03 7.13 21.03 7.14L21.03 7.14L21.03 7.14Q21.03 7.15 21.04 7.20L21.04 7.20L21.04 7.20Q21.04 7.24 21.04 7.25L21.04 7.25L21.04 7.25Q21.15 7.81 21.51 9.16L21.51 9.16L21.51 9.16Q21.87 10.50 22.16 11.56L22.16 11.56L22.46 12.64L22.46 12.64Q23.94 8.72 23.94 7.87L23.94 7.87L23.94 7.87Q23.94 7.63 23.86 7.54L23.86 7.54L23.86 7.54Q23.79 7.45 23.69 7.46L23.69 7.46L23.69 7.46Q23.59 7.46 23.51 7.41L23.51 7.41L23.51 7.41Q23.44 7.36 23.44 7.21L23.44 7.21L23.44 7.21Q23.44 6.96 23.91 6.96L23.91 6.96L23.91 6.96Q24.04 6.96 24.24 6.97L24.24 6.97L24.24 6.97Q24.44 6.99 24.51 6.99L24.51 6.99L24.51 6.99Q24.75 6.99 25.12 6.96L25.12 6.96L25.12 6.96Q25.48 6.93 25.58 6.93L25.58 6.93L25.58 6.93Q25.77 6.93 25.77 7.14L25.77 7.14L25.77 7.14Q25.77 7.20 25.73 7.25L25.73 7.25L25.73 7.25Q25.68 7.31 25.54 7.50L25.54 7.50L25.54 7.50Q25.40 7.69 25.21 8.01L25.21 8.01L25.21 8.01Q25.02 8.33 24.68 9.04L24.68 9.04L24.68 9.04Q24.35 9.76 23.95 10.74L23.95 10.74L23.95 10.74Q23.74 11.24 23.55 11.73L23.55 11.73L23.55 11.73Q23.37 12.22 23.25 12.53L23.25 12.53L23.25 12.53Q23.14 12.84 23.03 13.14L23.03 13.14L23.03 13.14Q22.92 13.44 22.86 13.60L22.86 13.60L22.86 13.60Q22.79 13.76 22.72 13.92L22.72 13.92L22.72 13.92Q22.64 14.07 22.60 14.13L22.60 14.13L22.60 14.13Q22.55 14.20 22.47 14.25L22.47 14.25L22.47 14.25Q22.39 14.29 22.32 14.31L22.32 14.31L22.32 14.31Q22.25 14.32 22.12 14.32L22.12 14.32L22.12 14.32Q21.80 14.32 21.67 14.08L21.67 14.08L21.67 14.08Q21.53 13.83 21.21 12.74L21.21 12.74L21.21 12.74Q21.04 12.17 20.93 11.80L20.93 11.80L20.93 11.80Q20.79 11.35 20.55 10.48L20.55 10.48L20.55 10.48Q20.30 9.60 20.22 9.31L20.22 9.31L19.61 10.74L19.61 10.74Q19.43 11.20 19.26 11.65L19.26 11.65L19.26 11.65Q19.08 12.10 18.97 12.39L18.97 12.39L18.97 12.39Q18.86 12.68 18.76 12.97L18.76 12.97L18.76 12.97Q18.66 13.26 18.59 13.43L18.59 13.43L18.59 13.43Q18.52 13.61 18.45 13.77L18.45 13.77L18.45 13.77Q18.38 13.93 18.33 14.01L18.33 14.01L18.33 14.01Q18.27 14.10 18.22 14.17L18.22 14.17L18.22 14.17Q18.17 14.24 18.10 14.27L18.10 14.27L18.10 14.27Q18.03 14.29 17.96 14.31L17.96 14.31L17.96 14.31Q17.89 14.32 17.78 14.32L17.78 14.32L17.78 14.32Q17.46 14.32 17.33 14.09L17.33 14.09L17.33 14.09Q17.21 13.86 16.90 12.82L16.90 12.82L16.90 12.82Q16.72 12.21 16.59 11.80L16.59 11.80L16.59 11.80Q16.49 11.45 16.32 10.86L16.32 10.86L16.32 10.86Q16.16 10.26 16.04 9.86L16.04 9.86L16.04 9.86Q15.92 9.45 15.78 9.00L15.78 9.00L15.78 9.00Q15.64 8.55 15.50 8.25L15.50 8.25L15.50 8.25Q15.36 7.95 15.23 7.81L15.23 7.81L15.23 7.81Q15.18 7.74 15.12 7.70L15.12 7.70L15.12 7.70Q15.06 7.66 14.97 7.63L14.97 7.63L14.97 7.63Q14.88 7.60 14.83 7.59L14.83 7.59L14.83 7.59Q14.78 7.59 14.64 7.58L14.64 7.58L14.64 7.58Q14.50 7.57 14.45 7.56L14.45 7.56ZM26.40 9.10L26.40 9.10L26.40 9.10Q26.40 8.43 26.64 8.06L26.64 8.06L26.64 8.06Q27.15 7.25 27.59 7.01L27.59 7.01L27.59 7.01Q28.04 6.76 28.92 6.76L28.92 6.76L28.92 6.76Q29.44 6.76 30.00 7L30.00 7L30.00 7Q30.16 7.06 30.23 7.10L30.23 7.10L30.23 7.10Q30.31 7.15 30.39 7.30L30.39 7.30L30.39 7.30Q30.48 7.45 30.48 7.69L30.48 7.69L30.48 7.69Q30.48 7.73 30.46 7.90L30.46 7.90L30.46 7.90Q30.45 8.08 30.44 8.39L30.44 8.39L30.44 8.39Q30.44 8.69 30.44 9.06L30.44 9.06L29.92 9.06L29.92 9.06Q29.90 8.88 29.80 8.53L29.80 8.53L29.80 8.53Q29.69 8.18 29.57 7.99L29.57 7.99L29.57 7.99Q29.29 7.59 28.52 7.59L28.52 7.59L28.52 7.59Q28.14 7.59 27.89 7.69L27.89 7.69L27.89 7.69Q27.64 7.80 27.53 7.96L27.53 7.96L27.53 7.96Q27.43 8.12 27.38 8.25L27.38 8.25L27.38 8.25Q27.34 8.39 27.34 8.51L27.34 8.51L27.34 8.51Q27.34 8.96 27.69 9.23L27.69 9.23L27.69 9.23Q28.04 9.51 28.55 9.67L28.55 9.67L28.55 9.67Q29.05 9.84 29.56 10.04L29.56 10.04L29.56 10.04Q30.07 10.25 30.42 10.72L30.42 10.72L30.42 10.72Q30.77 11.19 30.77 11.90L30.77 11.90L30.77 11.90Q30.77 12.64 30.56 12.99L30.56 12.99L30.56 12.99Q30.18 13.59 29.67 14L29.67 14L29.67 14Q29.46 14.15 29.01 14.25L29.01 14.25L29.01 14.25Q28.56 14.35 28.34 14.35L28.34 14.35L28.34 14.35Q26.84 14.35 26.54 13.85L26.54 13.85L26.54 13.85Q26.43 13.66 26.43 13.37L26.43 13.37L26.43 13.37Q26.43 12.24 26.50 11.98L26.50 11.98L26.50 11.98Q26.56 11.72 26.81 11.72L26.81 11.72L26.81 11.72Q27.02 11.72 27.08 11.91L27.08 11.91L27.08 11.91Q27.13 12.11 27.18 12.45L27.18 12.45L27.18 12.45Q27.23 12.80 27.38 13.01L27.38 13.01L27.38 13.01Q27.71 13.45 28.55 13.45L28.55 13.45L28.55 13.45Q29.16 13.45 29.51 13.17L29.51 13.17L29.51 13.17Q29.86 12.89 29.86 12.40L29.86 12.40L29.86 12.40Q29.86 11.93 29.51 11.65L29.51 11.65L29.51 11.65Q29.15 11.37 28.64 11.21L28.64 11.21L28.64 11.21Q28.13 11.05 27.62 10.86L27.62 10.86L27.62 10.86Q27.12 10.67 26.76 10.23L26.76 10.23L26.76 10.23Q26.40 9.80 26.40 9.10ZM34.50 14.11L31.19 14.11L31.19 13.61L31.19 13.61Q31.65 13.57 31.88 13.40L31.88 13.40L31.88 13.40Q32.10 13.24 32.35 12.79L32.35 12.79L32.35 12.79Q32.61 12.33 33.07 11.17L33.07 11.17L35.98 3.89L35.98 3.89Q36.08 3.82 36.44 3.77L36.44 3.77L36.44 3.77Q36.79 3.71 36.93 3.71L36.93 3.71L36.93 3.71Q40.52 12.57 40.61 12.77L40.61 12.77L40.61 12.77Q40.75 13.02 40.86 13.15L40.86 13.15L40.86 13.15Q40.96 13.29 41.20 13.43L41.20 13.43L41.20 13.43Q41.44 13.57 41.76 13.61L41.76 13.61L41.76 14.11L37.76 14.11L37.76 13.64L37.76 13.64Q39.00 13.54 39.00 13.02L39.00 13.02L39.00 13.02Q39.00 12.64 38.71 11.97L38.71 11.97L38.44 11.35L38.44 11.35Q38.28 10.98 38.15 10.63L38.15 10.63L34.10 10.63L34.10 10.63Q33.85 11.20 33.54 12.00L33.54 12.00L33.54 12.00Q33.24 12.81 33.24 12.95L33.24 12.95L33.24 12.95Q33.24 13.45 34.50 13.57L34.50 13.57L34.50 14.11ZM36.11 5.42L34.30 10.02L37.97 10.02L36.11 5.42ZM42.21 7.55L42.18 7.08L42.18 7.08Q42.78 7.03 43.28 6.94L43.28 6.94L43.28 6.94Q43.78 6.86 44.01 6.80L44.01 6.80L44.01 6.80Q44.24 6.75 44.28 6.75L44.28 6.75L44.28 6.75Q44.53 6.75 44.53 6.97L44.53 6.97L44.53 6.97Q44.53 6.99 44.51 7.33L44.51 7.33L44.51 7.33Q44.49 7.67 44.49 7.76L44.49 7.76L44.49 7.76Q44.60 7.70 45.05 7.41L45.05 7.41L45.05 7.41Q45.49 7.11 45.92 6.93L45.92 6.93L45.92 6.93Q46.35 6.75 46.80 6.75L46.80 6.75L46.80 6.75Q46.94 6.75 47.15 6.78L47.15 6.78L47.15 6.78Q47.35 6.82 47.73 7.01L47.73 7.01L47.73 7.01Q48.10 7.20 48.40 7.50L48.40 7.50L48.40 7.50Q48.69 7.80 48.92 8.43L48.92 8.43L48.92 8.43Q49.15 9.06 49.15 9.88L49.15 9.88L49.15 9.88Q49.15 11.90 48.32 13.05L48.32 13.05L48.32 13.05Q47.49 14.20 46.19 14.20L46.19 14.20L46.19 14.20Q45.88 14.20 45.62 14.16L45.62 14.16L45.62 14.16Q45.36 14.13 45.19 14.06L45.19 14.06L45.19 14.06Q45.01 13.99 44.88 13.92L44.88 13.92L44.88 13.92Q44.76 13.85 44.67 13.74L44.67 13.74L44.67 13.74Q44.59 13.64 44.55 13.57L44.55 13.57L44.55 13.57Q44.51 13.51 44.46 13.42L44.46 13.42L44.46 13.42Q44.42 13.33 44.41 13.31L44.41 13.31L44.41 13.31Q44.39 13.75 44.37 14.52L44.37 14.52L44.37 14.52Q44.35 15.29 44.35 15.48L44.35 15.48L44.35 15.48Q44.37 16.06 44.51 16.22L44.51 16.22L44.51 16.22Q44.65 16.38 45.19 16.48L45.19 16.48L45.19 16.95L42.34 16.95L42.34 16.51L42.34 16.51Q42.78 16.45 42.97 16.31L42.97 16.31L42.97 16.31Q43.15 16.17 43.15 15.90L43.15 15.90L43.15 15.90Q43.13 14.59 43.13 8.30L43.13 8.30L43.13 8.30Q43.13 7.80 42.99 7.67L42.99 7.67L42.99 7.67Q42.84 7.55 42.21 7.55L42.21 7.55ZM44.41 10.95L44.41 10.95L44.41 10.95Q44.41 12.42 44.71 12.97L44.71 12.97L44.71 12.97Q45.01 13.52 45.92 13.52L45.92 13.52L45.92 13.52Q46.69 13.52 47.25 12.73L47.25 12.73L47.25 12.73Q47.81 11.94 47.81 10.30L47.81 10.30L47.81 10.30Q47.81 7.83 46.20 7.83L46.20 7.83L46.20 7.83Q45.49 7.83 44.48 8.34L44.48 8.34L44.48 8.34Q44.48 8.75 44.44 9.64L44.44 9.64L44.44 9.64Q44.41 10.53 44.41 10.95ZM49.97 7.55L49.94 7.08L49.94 7.08Q50.54 7.03 51.04 6.94L51.04 6.94L51.04 6.94Q51.53 6.86 51.77 6.80L51.77 6.80L51.77 6.80Q52.00 6.75 52.04 6.75L52.04 6.75L52.04 6.75Q52.29 6.75 52.29 6.97L52.29 6.97L52.29 6.97Q52.29 6.99 52.27 7.33L52.27 7.33L52.27 7.33Q52.25 7.67 52.25 7.76L52.25 7.76L52.25 7.76Q52.36 7.70 52.80 7.41L52.80 7.41L52.80 7.41Q53.24 7.11 53.68 6.93L53.68 6.93L53.68 6.93Q54.11 6.75 54.56 6.75L54.56 6.75L54.56 6.75Q54.70 6.75 54.90 6.78L54.90 6.78L54.90 6.78Q55.10 6.82 55.48 7.01L55.48 7.01L55.48 7.01Q55.86 7.20 56.15 7.50L56.15 7.50L56.15 7.50Q56.45 7.80 56.68 8.43L56.68 8.43L56.68 8.43Q56.91 9.06 56.91 9.88L56.91 9.88L56.91 9.88Q56.91 11.90 56.08 13.05L56.08 13.05L56.08 13.05Q55.24 14.20 53.94 14.20L53.94 14.20L53.94 14.20Q53.63 14.20 53.38 14.16L53.38 14.16L53.38 14.16Q53.12 14.13 52.94 14.06L52.94 14.06L52.94 14.06Q52.77 13.99 52.64 13.92L52.64 13.92L52.64 13.92Q52.51 13.85 52.43 13.74L52.43 13.74L52.43 13.74Q52.35 13.64 52.30 13.57L52.30 13.57L52.30 13.57Q52.26 13.51 52.22 13.42L52.22 13.42L52.22 13.42Q52.18 13.33 52.16 13.31L52.16 13.31L52.16 13.31Q52.15 13.75 52.13 14.52L52.13 14.52L52.13 14.52Q52.11 15.29 52.11 15.48L52.11 15.48L52.11 15.48Q52.12 16.06 52.26 16.22L52.26 16.22L52.26 16.22Q52.40 16.38 52.95 16.48L52.95 16.48L52.95 16.95L50.09 16.95L50.09 16.51L50.09 16.51Q50.54 16.45 50.72 16.31L50.72 16.31L50.72 16.31Q50.90 16.17 50.90 15.90L50.90 15.90L50.90 15.90Q50.89 14.59 50.89 8.30L50.89 8.30L50.89 8.30Q50.89 7.80 50.74 7.67L50.74 7.67L50.74 7.67Q50.60 7.55 49.97 7.55L49.97 7.55ZM52.16 10.95L52.16 10.95L52.16 10.95Q52.16 12.42 52.47 12.97L52.47 12.97L52.47 12.97Q52.77 13.52 53.68 13.52L53.68 13.52L53.68 13.52Q54.45 13.52 55.01 12.73L55.01 12.73L55.01 12.73Q55.57 11.94 55.57 10.30L55.57 10.30L55.57 10.30Q55.57 7.83 53.96 7.83L53.96 7.83L53.96 7.83Q53.24 7.83 52.23 8.34L52.23 8.34L52.23 8.34Q52.23 8.75 52.20 9.64L52.20 9.64L52.20 9.64Q52.16 10.53 52.16 10.95Z"></path></g><!----><!----></svg>